<svg preserveAspectRatio="none" width="100%" height="100%" overflow="visible" style="display: block;" viewBox="0 0 17.4545 17.4545" fill="none" xmlns="http://www.w3.org/2000/svg">
<g id="arrow-right">
<path id="Vector" d="M10.4945 13.6873C10.3564 13.6873 10.2182 13.6364 10.1091 13.5273C9.89818 13.3164 9.89818 12.9673 10.1091 12.7564L14.1382 8.72727L10.1091 4.69818C9.89818 4.48727 9.89818 4.13818 10.1091 3.92727C10.32 3.71636 10.6691 3.71636 10.88 3.92727L15.2945 8.34182C15.5055 8.55273 15.5055 8.90182 15.2945 9.11273L10.88 13.5273C10.7709 13.6364 10.6327 13.6873 10.4945 13.6873Z" fill="var(--fill-0, white)"/>
<path id="Vector_2" d="M14.7855 9.27273H2.54545C2.24727 9.27273 2 9.02545 2 8.72727C2 8.42909 2.24727 8.18182 2.54545 8.18182H14.7855C15.0836 8.18182 15.3309 8.42909 15.3309 8.72727C15.3309 9.02545 15.0836 9.27273 14.7855 9.27273Z" fill="var(--fill-0, white)"/>
<g id="Vector_3" opacity="0">
</g>
</g>
</svg>
